# xmcd
#
# Track frame offsets: 
#        150
#        15258
#        31944
#        50917
#        63900
#        81741
#        99285
#        117490
#        134602
#        147309
#        163503
#        185725
#        203061
#        221109
#        235599
#
# Disc length: 3429 seconds
#
# Revision: 1
# Processed by: cddbd v1.5.1PL2 Copyright (c) Steve Scherf et al.
# Submitted via: ExactAudioCopy v0.90b4
#
DISCID=da0d630f
DTITLE=Old 97's - Alive and Wired [CD2]
DYEAR=2005
DGENRE=Alt Country
TTITLE0=Jagged
TTITLE1=Designs On You
TTITLE2=Curtain Calls
TTITLE3=Mama Tried
TTITLE4=If My Heart Was A Car
TTITLE5=Four Leaf Clover
TTITLE6=Stoned
TTITLE7=Oppenheimer
TTITLE8=Can't Get A Line
TTITLE9=Cryin' Drunk
TTITLE10=Big Brown Eyes
TTITLE11=Murder (Or A Heart Attack)
TTITLE12=Smokers
TTITLE13=Friends Forever
TTITLE14=Time Bomb
EXTD=
EXTT0=
EXTT1=
EXTT2=
EXTT3=
EXTT4=
EXTT5=
EXTT6=
EXTT7=
EXTT8=
EXTT9=
EXTT10=
EXTT11=
EXTT12=
EXTT13=
EXTT14=
PLAYORDER=
